<?xml version="1.0" encoding="utf-8"?>
<!-- Generator: Adobe Illustrator 21.0.1, SVG Export Plug-In . SVG Version: 6.00 Build 0)  -->
<svg version="1.1" id="Layer_1" xmlns="http://www.w3.org/2000/svg" xmlns:xlink="http://www.w3.org/1999/xlink" x="0px" y="0px"
	 viewBox="0 0 60 60" style="enable-background:new 0 0 60 60;" xml:space="preserve">
<path d="M30,3.2c14.8,0,26.8,12,26.8,26.8S44.8,56.8,30,56.8S3.2,44.8,3.2,30S15.2,3.2,30,3.2 M30,0C13.5,0,0,13.5,0,30
	s13.5,30,30,30s30-13.5,30-30S46.5,0,30,0L30,0z M48.1,44.6v-17l-12.4-4.9V9.9H21V30h-9v14.6H7.6v1.6h44.8v-1.6H48.1z M21,44.6h-7.7
	V31.3H21V44.6z M34.3,44.6h-12V11.3h12V44.6z M46.7,44.6h-11V24l11,4.4V44.6z M31.7,19.4H25v1.2h6.7V19.4z M31.7,22H25v1.2h6.7V22z
	 M31.7,24.7H25v1.2h6.7V24.7z M31.7,27.4H25v1.2h6.7V27.4z M31.7,30.1H25v1.2h6.7V30.1z M31.7,32.7H25V34h6.7V32.7z M31.7,35.4H25
	v1.2h6.7V35.4z M31.7,38.1H25v1.2h6.7V38.1z M40,32.7h-3V34h3V32.7z M45.4,32.7h-3V34h3V32.7z M40,35.4h-3v1.2h3V35.4z M45.4,35.4
	h-3v1.2h3V35.4z M40,38.1h-3v1.2h3V38.1z M45.4,38.1h-3v1.2h3V38.1z M40,40.8h-3V42h3V40.8z M45.4,40.8h-3V42h3V40.8z M18.6,33.5h-3
	v1.2h3V33.5z M18.6,36.2h-3v1.2h3V36.2z M18.6,38.9h-3v1.2h3V38.9z M18.6,41.6h-3v1.2h3V41.6z"/>
</svg>
